<?xml version="1.0" encoding="UTF-8" standalone="no"?>
<!-- Created with Inkscape (http://www.inkscape.org/) -->

<svg
   xmlns:dc="http://purl.org/dc/elements/1.1/"
   xmlns:cc="http://creativecommons.org/ns#"
   xmlns:rdf="http://www.w3.org/1999/02/22-rdf-syntax-ns#"
   xmlns:svg="http://www.w3.org/2000/svg"
   xmlns="http://www.w3.org/2000/svg"
   xmlns:inkscape="http://www.inkscape.org/namespaces/inkscape"
   version="1.1"
   width="821.25"
   height="311.25"
   id="svg2"
   xml:space="preserve"><metadata
     id="metadata8"><rdf:RDF><cc:Work
         rdf:about=""><dc:format>image/svg+xml</dc:format><dc:type
           rdf:resource="http://purl.org/dc/dcmitype/StillImage" /></cc:Work></rdf:RDF></metadata><defs
     id="defs6" /><g
     transform="matrix(1.25,0,0,-1.25,0,311.25)"
     id="g10"><g
       transform="scale(0.1,0.1)"
       id="g12"><path
         d="m 2331.87,1226.5 c 252.65,-201.91 566.46,-311.902 889.88,-311.902 338.73,0 666.38,120.622 924.25,340.252"
         inkscape:connector-curvature="0"
         id="path14"
         style="fill:#000000;fill-opacity:1;fill-rule:evenodd;stroke:none" /><path
         d="m 2331.87,1226.5 c 252.65,-201.91 566.46,-311.902 889.88,-311.902 338.73,0 666.38,120.622 924.25,340.252"
         inkscape:connector-curvature="0"
         id="path16"
         style="fill:none;stroke:#000000;stroke-width:28.34550095;stroke-linecap:butt;stroke-linejoin:miter;stroke-miterlimit:10;stroke-opacity:1;stroke-dasharray:none" /><path
         d="m 4571.19,1283.21 c 0,-360.054 -609.15,-651.944 -1360.58,-651.944 -751.43,0 -1360.59,291.89 -1360.59,651.944 0,360.06 609.16,651.95 1360.59,651.95 751.43,0 1360.58,-291.89 1360.58,-651.95 z"
         inkscape:connector-curvature="0"
         id="path18"
         style="fill:none;stroke:#000000;stroke-width:4.72424984;stroke-linecap:butt;stroke-linejoin:miter;stroke-miterlimit:10;stroke-opacity:1;stroke-dasharray:none" /><path
         d="m 3790.75,1509.98 c 0,-69.93 -56.7,-126.61 -126.62,-126.61 -69.92,0 -126.61,56.68 -126.61,126.61 0,69.92 56.69,126.61 126.61,126.61 69.92,0 126.62,-56.69 126.62,-126.61"
         inkscape:connector-curvature="0"
         id="path20"
         style="fill:#000000;fill-opacity:1;fill-rule:evenodd;stroke:none" /><path
         d="m 3790.75,1509.98 c 0,-69.93 -56.7,-126.61 -126.62,-126.61 -69.92,0 -126.61,56.68 -126.61,126.61 0,69.92 56.69,126.61 126.61,126.61 69.92,0 126.62,-56.69 126.62,-126.61 z"
         inkscape:connector-curvature="0"
         id="path22"
         style="fill:none;stroke:#000000;stroke-width:4.72424984;stroke-linecap:butt;stroke-linejoin:miter;stroke-miterlimit:10;stroke-opacity:1;stroke-dasharray:none" /><path
         d="m 2912.04,1509.98 c 0,-69.93 -56.7,-126.61 -126.62,-126.61 -69.92,0 -126.61,56.68 -126.61,126.61 0,69.92 56.69,126.61 126.61,126.61 69.92,0 126.62,-56.69 126.62,-126.61"
         inkscape:connector-curvature="0"
         id="path24"
         style="fill:#000000;fill-opacity:1;fill-rule:evenodd;stroke:none" /><path
         d="m 2912.04,1509.98 c 0,-69.93 -56.7,-126.61 -126.62,-126.61 -69.92,0 -126.61,56.68 -126.61,126.61 0,69.92 56.69,126.61 126.61,126.61 69.92,0 126.62,-56.69 126.62,-126.61 z"
         inkscape:connector-curvature="0"
         id="path26"
         style="fill:none;stroke:#000000;stroke-width:4.72424984;stroke-linecap:butt;stroke-linejoin:miter;stroke-miterlimit:10;stroke-opacity:1;stroke-dasharray:none" /><path
         d="m 7.56641,7.66797 6547.80999,0 0,2466.06003 -6547.80999,0 0,-2466.06003 z"
         inkscape:connector-curvature="0"
         id="path28"
         style="fill:none;stroke:#000000;stroke-width:4.72424984;stroke-linecap:butt;stroke-linejoin:miter;stroke-miterlimit:10;stroke-opacity:1;stroke-dasharray:none" /><path
         d="m 262.676,291.121 1247.2,0 0,1955.84 -1247.2,0 0,-1955.84 z"
         inkscape:connector-curvature="0"
         id="path30"
         style="fill:none;stroke:#000000;stroke-width:4.72424984;stroke-linecap:butt;stroke-linejoin:miter;stroke-miterlimit:10;stroke-opacity:1;stroke-dasharray:none" /><path
         d="m 4996.38,319.469 1247.2,0 0,1955.84 -1247.2,0 0,-1955.84 z"
         inkscape:connector-curvature="0"
         id="path32"
         style="fill:none;stroke:#000000;stroke-width:4.72424984;stroke-linecap:butt;stroke-linejoin:miter;stroke-miterlimit:10;stroke-opacity:1;stroke-dasharray:none" /><g
         transform="scale(10,10)"
         id="g34"><text
           transform="matrix(0,1,1,0,116.973,102.811)"
           id="text36"><tspan
             x="0 11.551639 20.447361 23.99925 31.999001 40.894722 45.342583 48.89447 56.894222"
             y="0"
             id="tspan38"
             style="font-size:15.99950027px;font-variant:normal;font-weight:normal;writing-mode:lr-tb;fill:#000000;fill-opacity:1;fill-rule:nonzero;stroke:none;font-family:Helvetica;-inkscape-font-specification:Helvetica">Helvetica</tspan><tspan
             x="14.1727 23.068422 31.964144 36.412006 45.307728"
             y="-51.0219"
             id="tspan40"
             style="font-size:15.99950027px;font-variant:normal;font-weight:normal;writing-mode:lr-tb;fill:#000000;fill-opacity:1;fill-rule:nonzero;stroke:none;font-family:Helvetica;-inkscape-font-specification:Helvetica">16 pt</tspan></text>
<text
           transform="matrix(0,1,1,0,587.5081,114.14932)"
           id="text42"><tspan
             x="0 5.3278337 13.327583 21.327333 25.775194"
             y="0"
             id="tspan44"
             style="font-size:15.99950027px;font-variant:normal;font-weight:normal;writing-mode:lr-tb;fill:#000000;fill-opacity:1;fill-rule:nonzero;stroke:none;font-family:Times New Roman;-inkscape-font-specification:Times-Roman">fonts</tspan><tspan
             x="0 4.4478612 11.551639 15.9995 23.103277"
             y="-39.683601"
             id="tspan46"
             style="font-size:15.99950027px;font-variant:normal;font-weight:normal;writing-mode:lr-tb;fill:#000000;fill-opacity:1;fill-rule:nonzero;stroke:none;font-family:Times New Roman;-inkscape-font-specification:Times-Roman">latex</tspan></text>
</g></g></g></svg>